# xmcd
#
# Track frame offsets: 
#        150
#        33856
#        91881
#        111427
#        156811
#        182831
#        217013
#        242218
#        276031
#        320255
#
# Disc length: 4588 seconds
#
# Revision: 0
# Processed by: cddbd v1.5.2PL0 Copyright (c) Steve Scherf et al.
# Submitted via: ExactAudioCopy v0.99pb3
#
DISCID=8711ea0a
DTITLE=Travis 'Moonchild' Haddix - Mud Cakes
DYEAR=2005
DGENRE=Blues
TTITLE0=Dance To The Blues
TTITLE1=My Secret
TTITLE2=Job Close To Home
TTITLE3=Mud Cakes
TTITLE4=Moon Child Ode To JLT
TTITLE5=Winners Never Quit
TTITLE6=My Pet Peeve
TTITLE7=T-Bone Shuffle
TTITLE8=My Wife, My Woman, My Girlfriend
TTITLE9=Acute Blues Syndrome
EXTD=
EXTT0=
EXTT1=
EXTT2=
EXTT3=
EXTT4=
EXTT5=
EXTT6=
EXTT7=
EXTT8=
EXTT9=
PLAYORDER=
